# xmcd
#
# Track frame offsets:
#	150
#	27048
#	48096
#	65244
#	80442
#	102165
#	122763
#	148236
#	169509
#	189957
#
# Disc length: 2835 seconds
#
# Revision: 1
# Processed by: cddbd v1.5.2PL0 Copyright (c) Steve Scherf et al.
# Submitted via: audiograbber 1.83.01
#
DISCID=800b110a
DTITLE=Albert King  - The Lost Session
DYEAR=1900
DGENRE=Blues
TTITLE0=She Won't Gimme No Lovin'
TTITLE1=Cold In Hand
TTITLE2=Stop Lying
TTITLE3=All The Way Down
TTITLE4=Tell Me What True Love Is
TTITLE5=Down The Road I Go
TTITLE6=Money Lovin' Women
TTITLE7=Sun Gone Down [Take 1]
TTITLE8=Brand New Razor
TTITLE9=Sun Gone Down [Take 2]
EXTD=
EXTT0=
EXTT1=
EXTT2=
EXTT3=
EXTT4=
EXTT5=
EXTT6=
EXTT7=
EXTT8=
EXTT9=
PLAYORDER=
